<?xml version="1.0" encoding="UTF-8"?>
<svg id="Camada_2" data-name="Camada 2" xmlns="http://www.w3.org/2000/svg" viewBox="0 0 57.78 50.85">
  <defs>
    <style>
      .cls-1 {
        fill: #c70d69;
      }
    </style>
  </defs>
  <g id="Camada_1-2" data-name="Camada 1">
    <g>
      <polygon class="cls-1" points="13.02 20.51 39.87 7.09 37.83 6.06 10.98 19.49 13.02 20.51"/>
      <path class="cls-1" d="M.64,14.32l7.75,3.88,26.86-13.43L25.94.12c-.32-.16-.71-.16-1.03,0C24.91.12.72,12.22.64,12.26c-.83.41-.83,1.65,0,2.06Z"/>
      <path class="cls-1" d="M50.21,12.26l-7.75-3.88-26.85,13.43,9.3,4.65c.33.16.71.16,1.03,0,0,0,24.22-12.11,24.27-12.14.84-.42.84-1.64,0-2.06Z"/>
      <path class="cls-1" d="M47.38,27.74c1.2,0,2.37.16,3.47.48v-11.64s-24.14,12.04-24.27,12.08v21.74l9.26-4.63c-.75-1.62-1.17-3.42-1.17-5.33,0-7.01,5.7-12.71,12.71-12.71Z"/>
      <path class="cls-1" d="M47.38,30.04c-5.73,0-10.4,4.67-10.4,10.4s4.66,10.4,10.4,10.4,10.4-4.66,10.4-10.4-4.67-10.4-10.4-10.4ZM52.82,38.18l-6.16,6.16c-.44.45-1.19.45-1.63,0,0,0-3.09-3.08-3.09-3.08-.45-.45-.45-1.18,0-1.63.45-.45,1.18-.45,1.64,0l2.26,2.26,5.35-5.35c.45-.45,1.18-.45,1.63,0,.45.45.45,1.18,0,1.63Z"/>
      <path class="cls-1" d="M0,37.56c0,.44.25.83.64,1.03l23.63,11.81v-21.74c-.13-.05-24.27-12.08-24.27-12.08v20.98ZM4.75,29.53c.29-.57.98-.8,1.55-.52l4.62,2.31c.57.29.81.98.52,1.55-.29.58-1.02.79-1.55.52l-4.62-2.31c-.57-.29-.8-.98-.51-1.55ZM4.75,34.15c.29-.57.98-.8,1.55-.52l6.94,3.47c.57.29.8.98.51,1.55-.29.58-1.01.78-1.55.51,0,0-6.94-3.47-6.94-3.47-.57-.28-.8-.98-.51-1.55Z"/>
    </g>
  </g>
</svg>
