<?xml version="1.0" encoding="UTF-8"?>
<svg id="Camada_2" data-name="Camada 2" xmlns="http://www.w3.org/2000/svg" viewBox="0 0 44.57 59.45">
  <defs>
    <style>
      .cls-1 {
        fill: #5b8be7;
      }
    </style>
  </defs>
  <g id="Camada_1-2" data-name="Camada 1">
    <g>
      <path class="cls-1" d="M44.53,35.86c-.05-.93-.17-1.85-.34-2.77-.17-.92-.4-1.82-.68-2.71-.28-.89-.62-1.76-1.01-2.6-.4-.85-.84-1.67-1.33-2.45-.49-.79-1.04-1.55-1.63-2.27-.59-.72-1.22-1.4-1.9-2.04-.68-.65-1.39-1.24-2.14-1.8-.75-.55-1.53-1.06-2.34-1.51-.82-.45-1.66-.85-2.52-1.2-.86-.35-1.74-.65-2.65-.89s-1.82-.42-2.74-.54h.02l8.28-9.03c.24-.26.36-.57.36-.92,0-.35-.1-.66-.33-.93l-3.17-3.71c-.28-.32-.63-.49-1.06-.49h-14.09c-.43,0-.79.16-1.06.49l-3.17,3.71c-.23.27-.34.58-.33.93,0,.35.13.66.36.92l8.27,9.03c-.93.12-1.84.3-2.74.54s-1.79.53-2.65.89c-.86.35-1.7.75-2.52,1.2s-1.59.96-2.35,1.51c-.75.55-1.46,1.15-2.14,1.8-.68.64-1.31,1.32-1.9,2.04-.59.72-1.13,1.48-1.62,2.27-.49.79-.94,1.6-1.33,2.45-.39.84-.73,1.71-1.02,2.6-.28.89-.51,1.79-.68,2.71-.17.92-.28,1.84-.34,2.77-.05.93-.05,1.86.02,2.79.06.93.18,1.85.36,2.77s.41,1.82.7,2.7.64,1.75,1.04,2.59c.4.84.85,1.66,1.35,2.44.5.79,1.05,1.54,1.65,2.26.6.72,1.23,1.4,1.92,2.03.68.64,1.4,1.23,2.15,1.78.76.55,1.54,1.05,2.36,1.49.82.45,1.66.84,2.53,1.18.86.34,1.75.63,2.65.86.91.23,1.82.41,2.74.53.92.11,1.85.17,2.79.17s1.86-.06,2.79-.17c.92-.12,1.84-.29,2.74-.53.91-.23,1.79-.52,2.66-.86.87-.34,1.71-.73,2.53-1.18.82-.45,1.6-.95,2.36-1.49.76-.55,1.47-1.14,2.16-1.78.68-.64,1.32-1.31,1.91-2.03.6-.71,1.15-1.47,1.65-2.26.51-.78.95-1.6,1.35-2.44.4-.84.74-1.71,1.04-2.59s.53-1.79.7-2.7.3-1.84.36-2.77c.06-.93.07-1.86.01-2.79ZM13.95,5.08l1.95-2.29h12.8l1.95,2.29-8.36,9.11L13.95,5.08ZM41.41,40.95c-.25,1.26-.62,2.47-1.11,3.66-.49,1.18-1.09,2.3-1.8,3.36-.71,1.07-1.52,2.05-2.43,2.96-.9.9-1.89,1.71-2.95,2.42-1.06.71-2.19,1.31-3.37,1.8-1.18.49-2.4.86-3.66,1.11-1.26.25-2.52.38-3.8.38s-2.55-.12-3.8-.38-2.47-.62-3.66-1.11c-1.18-.49-2.31-1.09-3.38-1.8-1.06-.71-2.05-1.52-2.95-2.42s-1.71-1.89-2.42-2.96c-.71-1.06-1.31-2.19-1.8-3.37-.49-1.18-.86-2.4-1.11-3.66-.25-1.26-.38-2.53-.38-3.81s.12-2.55.38-3.8c.24-1.26.62-2.47,1.11-3.66.49-1.18,1.09-2.31,1.8-3.37.71-1.07,1.52-2.05,2.42-2.96s1.89-1.71,2.95-2.42c1.07-.71,2.19-1.31,3.38-1.8,1.18-.49,2.4-.86,3.66-1.11s2.53-.38,3.8-.38,2.55.12,3.81.38,2.47.62,3.66,1.11c1.18.49,2.31,1.09,3.37,1.8,1.07.71,2.05,1.52,2.96,2.42.9.91,1.71,1.89,2.42,2.96.71,1.06,1.31,2.19,1.8,3.37.49,1.18.86,2.4,1.11,3.66s.38,2.53.38,3.8-.12,2.55-.38,3.81Z"/>
      <path class="cls-1" d="M36.87,31.11c-.4-.96-.88-1.87-1.46-2.73-.57-.86-1.23-1.66-1.96-2.39-.73-.73-1.53-1.39-2.39-1.96-.86-.58-1.77-1.06-2.73-1.46-.96-.4-1.95-.7-2.96-.9-1.02-.2-2.04-.31-3.08-.31s-2.06.1-3.08.31c-1.01.2-2,.5-2.96.89-.95.4-1.87.89-2.72,1.46-.87.58-1.67,1.23-2.4,1.96-.73.74-1.39,1.54-1.96,2.4-.58.86-1.07,1.77-1.46,2.73-.4.96-.7,1.94-.9,2.96-.2,1.01-.3,2.04-.3,3.08s.1,2.06.3,3.08c.2,1.01.5,2,.9,2.96.39.96.88,1.87,1.46,2.73.57.86,1.23,1.66,1.96,2.39.73.73,1.53,1.39,2.4,1.97.85.57,1.77,1.05,2.72,1.45.96.4,1.95.7,2.96.9,1.02.2,2.04.3,3.08.3s2.06-.1,3.08-.3,2-.5,2.96-.9c.96-.4,1.87-.88,2.73-1.45.87-.58,1.66-1.24,2.39-1.97.74-.73,1.39-1.53,1.97-2.39.57-.86,1.06-1.77,1.45-2.73.41-.96.7-1.95.91-2.96.2-1.02.3-2.04.3-3.08s-.11-2.06-.31-3.08c-.2-1.02-.5-2-.9-2.96ZM35.04,39.68c-.17.84-.42,1.65-.74,2.44-.33.79-.73,1.54-1.2,2.24-.48.72-1.02,1.37-1.62,1.97-.61.61-1.26,1.15-1.97,1.62-.71.48-1.46.88-2.25,1.21-.78.32-1.59.57-2.43.74-.84.16-1.69.25-2.54.25s-1.7-.09-2.54-.25c-.83-.17-1.64-.42-2.43-.74-.79-.33-1.54-.73-2.25-1.2-.71-.48-1.37-1.02-1.97-1.62-.6-.61-1.14-1.26-1.62-1.97-.47-.71-.87-1.46-1.2-2.25-.32-.79-.57-1.6-.74-2.44-.17-.83-.24-1.68-.24-2.53s.07-1.7.24-2.54c.17-.83.42-1.65.74-2.44.33-.79.73-1.54,1.2-2.24.48-.71,1.02-1.37,1.62-1.97.6-.61,1.26-1.15,1.97-1.62.71-.48,1.46-.88,2.25-1.2.79-.33,1.6-.57,2.43-.74.84-.17,1.69-.25,2.54-.25s1.7.08,2.54.25c.84.17,1.65.41,2.43.74.8.32,1.55.72,2.25,1.2.71.47,1.37,1.01,1.97,1.62.61.6,1.14,1.26,1.62,1.97.48.7.87,1.45,1.2,2.24.33.79.57,1.61.74,2.44.17.84.25,1.69.25,2.54s-.08,1.7-.25,2.53Z"/>
    </g>
  </g>
</svg>
