<?xml version="1.0" encoding="UTF-8"?>
<svg id="Camada_2" data-name="Camada 2" xmlns="http://www.w3.org/2000/svg" xmlns:xlink="http://www.w3.org/1999/xlink" viewBox="0 0 363.64 442.06">
  <defs>
    <style>
      .cls-1 {
        fill: url(#linear-gradient-15);
      }

      .cls-2 {
        fill: url(#linear-gradient-13);
      }

      .cls-3 {
        fill: url(#linear-gradient-2);
      }

      .cls-4 {
        fill: url(#linear-gradient-10);
      }

      .cls-5 {
        fill: url(#linear-gradient-12);
      }

      .cls-6 {
        opacity: .4;
      }

      .cls-7 {
        fill: url(#linear-gradient-4);
      }

      .cls-8 {
        fill: url(#linear-gradient-3);
      }

      .cls-9 {
        fill: url(#linear-gradient-5);
      }

      .cls-10 {
        fill: url(#linear-gradient-8);
      }

      .cls-11 {
        fill: url(#linear-gradient-14);
      }

      .cls-12 {
        fill: url(#linear-gradient-7);
      }

      .cls-13 {
        fill: url(#linear-gradient-9);
      }

      .cls-14 {
        fill: url(#linear-gradient-11);
      }

      .cls-15 {
        fill: url(#linear-gradient-6);
      }

      .cls-16 {
        fill: url(#linear-gradient-16);
      }

      .cls-17 {
        fill: url(#linear-gradient);
      }
    </style>
    <linearGradient id="linear-gradient" x1="177.76" y1="223.99" x2="363.64" y2="223.99" gradientUnits="userSpaceOnUse">
      <stop offset="0" stop-color="#f4c12f"/>
      <stop offset="0" stop-color="#ebc33f"/>
      <stop offset=".32" stop-color="#f9ef8c"/>
      <stop offset=".68" stop-color="#ddab15"/>
      <stop offset="1" stop-color="#f8f097"/>
    </linearGradient>
    <linearGradient id="linear-gradient-2" x1="212.87" y1="207.57" x2="229.64" y2="207.57" xlink:href="#linear-gradient"/>
    <linearGradient id="linear-gradient-3" x1="231.22" y1="144.85" x2="239.49" y2="144.85" xlink:href="#linear-gradient"/>
    <linearGradient id="linear-gradient-4" x1="224.19" y1="60.38" x2="304.35" y2="60.38" xlink:href="#linear-gradient"/>
    <linearGradient id="linear-gradient-5" x1="0" y1="128.77" x2="199.05" y2="128.77" xlink:href="#linear-gradient"/>
    <linearGradient id="linear-gradient-6" x1="7.22" y1="411.94" x2="39.02" y2="411.94" xlink:href="#linear-gradient"/>
    <linearGradient id="linear-gradient-7" x1="41.94" y1="411.94" x2="56.84" y2="411.94" xlink:href="#linear-gradient"/>
    <linearGradient id="linear-gradient-8" x1="60.78" y1="415.05" x2="75.74" y2="415.05" xlink:href="#linear-gradient"/>
    <linearGradient id="linear-gradient-9" x1="78.01" y1="411.87" x2="125.3" y2="411.87" xlink:href="#linear-gradient"/>
    <linearGradient id="linear-gradient-10" x1="128.26" y1="412.43" x2="165.64" y2="412.43" xlink:href="#linear-gradient"/>
    <linearGradient id="linear-gradient-11" x1="168.61" y1="411.94" x2="197.69" y2="411.94" xlink:href="#linear-gradient"/>
    <linearGradient id="linear-gradient-12" x1="200.6" y1="411.94" x2="230.79" y2="411.94" xlink:href="#linear-gradient"/>
    <linearGradient id="linear-gradient-13" x1="234.66" y1="415.66" x2="289.34" y2="415.66" xlink:href="#linear-gradient"/>
    <linearGradient id="linear-gradient-14" x1="268.79" y1="411.94" x2="283.69" y2="411.94" xlink:href="#linear-gradient"/>
    <linearGradient id="linear-gradient-15" x1="283.43" y1="415.15" x2="346.01" y2="415.15" xlink:href="#linear-gradient"/>
    <linearGradient id="linear-gradient-16" x1="326.62" y1="411.97" x2="357.33" y2="411.97" xlink:href="#linear-gradient"/>
  </defs>
  <g id="Camada_1-2" data-name="Camada 1">
    <g class="cls-6">
      <g>
        <path class="cls-17" d="M337.03,149.67v200.77h-3.19l-126.28-223.83v167.08c0,29.09,10.64,50.02,26.25,52.14h-56.05c15.96-2.13,26.6-23.06,26.6-52.14v-148.28c0-29.09-8.51-42.21-26.6-47.89h48.24l108.19,190.13v-137.99c0-29.09-11-50.02-26.6-52.14h56.05c-15.61,2.13-26.6,23.06-26.6,52.14Z"/>
        <g>
          <polygon class="cls-3" points="222.77 196.16 212.87 162.59 212.87 252.55 229.64 176.58 227.79 173.31 222.77 196.16"/>
          <polygon class="cls-8" points="237.61 128.67 231.22 157.73 233.08 161.03 239.49 131.98 237.61 128.67"/>
          <path class="cls-7" d="M251.85,63.85l-10.84,49.31,1.89,3.33,11.07-50.16c11.71-53.92,21.64-59.59,50.37-62.08h-80.17c24.48,2.13,39.73,2.84,27.67,59.59Z"/>
          <path class="cls-9" d="M199.05,145.42c0-29.58-9.15-38.51-22.88-42.82-2.5-.79-4.06-3.28-3.66-5.88.4-2.6,2.63-4.51,5.26-4.51h14.37L164.95,0h-3.19l-57.47,200.07-31.93-159.98c-4.97-23.41,4.97-34.05,26.6-35.83H0c22.35,2.48,35.47,11,42.57,37.96,2.48,9.22,37.96,190.49,46.11,215.32h1.42l59.95-206.45,49,168.74v-74.4Z"/>
        </g>
      </g>
      <g>
        <path class="cls-15" d="M24.26,434.61H7.22c2.92-.39,4.86-.97,4.86-6.28v-32.78c0-5.31-1.94-5.9-4.86-6.28h15.29c16.2,0,17.23,18.2,3.31,20.66,18.07,1.36,17.62,24.68-1.56,24.68ZM23.09,434.03h.65c13.02,0,12.7-23.84-1.23-23.84v-.26c9.98,0,10.82-20.08.07-20.08h-2.14c-2.85.32-3.17,1.49-3.17,5.31v33.43c0,4.79.26,5.44,5.83,5.44Z"/>
        <path class="cls-12" d="M56.84,434.61h-14.9c2.92-.39,4.86-.97,4.86-6.28v-32.78c0-5.31-1.94-5.9-4.86-6.28h14.9c-2.85.39-4.86.97-4.86,6.28v32.78c0,5.31,2.01,5.89,4.86,6.28Z"/>
        <path class="cls-10" d="M61.17,440.83l-.07-.19c3.89-1.43,4.54-4.41,4.54-11.72v-33.36c0-5.31-1.94-5.9-4.86-6.28h14.96c-2.91.39-4.86.97-4.86,6.28v33.36c0,8.42-5.57,11.21-9.72,11.92Z"/>
        <path class="cls-13" d="M101.65,435.52c-11.85,0-23.64-7.9-23.64-23.65s11.85-23.64,23.64-23.64,23.65,7.84,23.65,23.64-11.85,23.65-23.65,23.65ZM101.65,435.07c8.88,0,17.75-7.77,17.75-23.19s-8.88-23.19-17.75-23.19-17.75,7.71-17.75,23.19,8.88,23.19,17.75,23.19Z"/>
        <path class="cls-4" d="M146.98,435.59c-7,0-13.93-4.86-13.86-14.51v-25.52c0-5.31-1.94-5.9-4.86-6.28h14.96c-2.91.39-4.86.97-4.86,6.28v25.52c0,8.68,5.31,12.83,10.69,12.83s11.21-4.41,11.21-12.83v-22.29c0-5.31-1.94-9.13-4.86-9.52h10.24c-2.85.39-4.79,4.21-4.79,9.52v22.29c.13,9.65-6.87,14.51-13.86,14.51Z"/>
        <path class="cls-14" d="M190.57,434.61h-14.9c2.92-.39,4.86-.97,4.86-6.28v-38.48h-.06c-9.98,0-11.14,8.29-11.85,10.43l1.88-11.01h25.27l1.94,11.01c-.78-2.14-1.94-10.43-11.85-10.43h-.06v38.48c0,5.31,1.94,5.89,4.79,6.28Z"/>
        <path class="cls-5" d="M228.91,434.55v.06h-28.31c2.92-.39,4.86-.97,4.86-6.28v-32.78c0-5.31-1.94-5.9-4.86-6.28h27.53l1.88,11.01c-.71-2.14-1.88-10.43-11.85-10.43h-7.51v20.6h8.49c4.15,0,4.54-3.69,4.92-6.09v12.76c-.39-2.33-.78-6.09-4.92-6.09h-8.49v17.55c0,4.79.39,5.44,5.96,5.44h2.33c9.98,0,11.14-8.29,11.85-10.43l-1.88,10.95Z"/>
        <path class="cls-2" d="M279.1,442.06c-8.23,0-17.36-2.78-22.48-11.92-3.24-5.77-5.51-9.39-8.16-9.39h-3.76v7.58c0,5.31,2.01,5.89,4.86,6.28h-14.9c2.92-.39,4.86-.97,4.86-6.28v-32.78c0-5.31-1.94-5.9-4.86-6.28h13.8c20.73-.07,21.57,28.96,2.53,31.29,5.57.71,8.16,3.89,11.21,8.68,5.96,9.26,14.32,11.92,20.99,11.92,2.33,0,4.41-.32,6.09-.78l.06.26c-2.91.84-6.48,1.42-10.24,1.42ZM244.7,420.17h3.76c14.58,0,14.64-30.32,0-30.32h-.13c-2.66,0-3.63.65-3.63,5.44v24.88Z"/>
        <path class="cls-11" d="M283.69,434.61h-14.9c2.92-.39,4.86-.97,4.86-6.28v-32.78c0-5.31-1.94-5.9-4.86-6.28h14.9c-2.85.39-4.86.97-4.86,6.28v32.78c0,5.31,2.01,5.89,4.86,6.28Z"/>
        <path class="cls-1" d="M336.94,441.93c-10.49,0-22.8-5.05-28.05-21.96h-14.25l-1.23,3.89c-3.11,10.11-.58,10.36,3.82,10.75h-13.8c5.31-.45,6.61-1.68,9.65-11.34l10.95-34.92h.32l9.59,30.12c5.64,18.01,17.3,22.61,25.98,22.61,2.27,0,4.34-.32,6.02-.78l.07.33c-2.66.78-5.77,1.29-9.07,1.29ZM294.83,419.39h13.93l-6.87-22.61-7.06,22.61Z"/>
        <path class="cls-16" d="M341.85,435.52c-5.57,0-11.4-1.94-15.22-6.03l2.4-9.98c-.65,10.49,6.15,15.29,12.5,15.29,5.38,0,10.43-3.43,10.43-9.91,0-13.21-22.87-12.76-22.87-26.11,0-7.32,6.22-10.36,12.63-10.36,4.21,0,8.55,1.36,11.14,3.63l-.91,8.16c0-7.77-4.92-11.14-9.72-11.14-4.4,0-8.75,2.92-8.75,7.84,0,11.21,23.84,11.73,23.84,26.37,0,8.1-7.45,12.24-15.48,12.24Z"/>
      </g>
    </g>
  </g>
</svg>
