<?xml version="1.0" encoding="UTF-8"?>
<svg id="Camada_2" data-name="Camada 2" xmlns="http://www.w3.org/2000/svg" viewBox="0 0 48.47 60.17">
  <defs>
    <style>
      .cls-1 {
        fill: #66d1ed;
      }
    </style>
  </defs>
  <g id="Camada_1-2" data-name="Camada 1">
    <g>
      <path class="cls-1" d="M24.23,34.14c4.53,0,8.64-1.92,11.59-5.01,2.96-3.09,4.8-7.36,4.8-12.07s-1.84-8.97-4.8-12.07c-2.96-3.09-7.06-5-11.59-5s-8.63,1.92-11.59,5c-2.96,3.09-4.8,7.36-4.8,12.07s1.83,8.98,4.8,12.07c2.96,3.09,7.07,5.01,11.59,5.01Z"/>
      <path class="cls-1" d="M48.46,59.81c-.09-3.15-.26-6.63-.54-9.61-.13-1.49-.31-2.85-.5-3.99-.1-.57-.21-1.08-.33-1.53-.12-.45-.25-.82-.4-1.13-2.5-5.19-7.72-8.54-13.29-8.55-.05,0-.1,0-.15,0-2.38-.17-5.57-.25-8.86-.25s-6.66.08-9.41.25c-.05,0-.1,0-.15,0-4.58,0-8.97,2.25-11.77,6.04-.58.77-1.02,1.89-1.39,3.23-.56,2.03-.94,4.6-1.2,7.32-.26,2.73-.41,5.6-.48,8.23v.36s.34,0,.34,0h48.13v-.36Z"/>
    </g>
  </g>
</svg>
