<?xml version="1.0" encoding="UTF-8"?>
<svg id="Camada_2" data-name="Camada 2" xmlns="http://www.w3.org/2000/svg" viewBox="0 0 44.41 42.81">
  <defs>
    <style>
      .cls-1 {
        fill: #ff9e33;
      }
    </style>
  </defs>
  <g id="Camada_1-2" data-name="Camada 1">
    <g>
      <path class="cls-1" d="M44.41,20.37c0-.18-.06-.35-.12-.53-.06-.06-.12-.18-.18-.24-.06-.06-.06-.12-.12-.18l-7.52-7.58c-.53-.53-1.36-.53-1.89,0-.53.53-.53,1.54,0,2.07l5.27,5.45H13.62c-.71,0-1.36.59-1.36,1.36,0,.71.59,1.36,1.36,1.36h26.23l-5.27,5.15c-.53.53-.53,1.3,0,1.83s1.36.47,1.89-.06l7.58-7.58c.06-.06.12-.12.12-.24.06-.06.12-.12.12-.24.12-.23.12-.41.12-.59Z"/>
      <path class="cls-1" d="M26.76,29.72v10.42H2.66V2.66h24.1v9.77h2.66V2.66c0-1.48-1.12-2.66-2.49-2.66H2.49C1.13,0,0,1.18,0,2.66v37.48c0,1.48,1.13,2.66,2.49,2.66h24.45c1.36,0,2.49-1.18,2.49-2.66v-10.42h-2.66Z"/>
    </g>
  </g>
</svg>
