<?xml version="1.0" encoding="UTF-8"?>
<svg id="Camada_2" data-name="Camada 2" xmlns="http://www.w3.org/2000/svg" viewBox="0 0 50.47 55.16">
  <defs>
    <style>
      .cls-1 {
        fill: #ffc945;
      }
    </style>
  </defs>
  <g id="Camada_1-2" data-name="Camada 1">
    <g>
      <path class="cls-1" d="M35.21,46.95H0c0,4.53,3.69,8.21,8.21,8.21h29.82c-1.73-1.6-2.82-3.91-2.82-6.45v-1.76Z"/>
      <path class="cls-1" d="M11.74,21.12c5.82,0,10.56-4.74,10.56-10.56S17.56,0,11.74,0,1.17,4.74,1.17,10.56s4.74,10.56,10.57,10.56ZM11.74,11.73c-1.94,0-3.53-1.58-3.53-3.52,0-1.53.98-2.83,2.35-3.32v-1.38c0-.65.53-1.18,1.18-1.18s1.17.53,1.17,1.18v1.17h1.17c.65,0,1.18.53,1.18,1.18s-.53,1.17-1.18,1.17h-2.34c-.65,0-1.18.53-1.18,1.17s.53,1.18,1.18,1.18c1.94,0,3.52,1.58,3.52,3.52,0,1.53-.98,2.83-2.35,3.32v1.38c0,.65-.53,1.17-1.17,1.17s-1.18-.52-1.18-1.17v-1.17h-1.17c-.65,0-1.18-.53-1.18-1.18s.53-1.17,1.18-1.17h2.35c.65,0,1.17-.53,1.17-1.17s-.53-1.18-1.17-1.18Z"/>
      <rect class="cls-1" x="30.52" y="5.87" width="14.09" height="3.52"/>
      <path class="cls-1" d="M19.15,0c3.32,2.34,5.49,6.2,5.49,10.56,0,8.04-7.31,14.16-15.26,12.7v21.34h26.99c.65,0,1.17.53,1.17,1.18v2.81c0,3.44,2.61,6.27,5.91,6.55,3.8.32,7-2.72,7-6.43V0h-31.32ZM45.78,41.08H14.08c-.65,0-1.17-.53-1.17-1.17s.53-1.18,1.17-1.18h31.69c.65,0,1.17.53,1.17,1.18s-.53,1.17-1.17,1.17ZM45.78,35.21H14.08c-.65,0-1.17-.52-1.17-1.17s.53-1.17,1.17-1.17h31.69c.65,0,1.17.53,1.17,1.17s-.53,1.17-1.17,1.17ZM45.78,29.34H14.08c-.65,0-1.17-.53-1.17-1.18s.53-1.17,1.17-1.17h31.69c.65,0,1.17.53,1.17,1.17s-.53,1.18-1.17,1.18ZM45.78,23.47h-21.13c-.65,0-1.17-.53-1.17-1.17s.53-1.18,1.17-1.18h21.13c.65,0,1.17.53,1.17,1.18s-.53,1.17-1.17,1.17ZM45.78,17.6h-16.43c-.65,0-1.17-.53-1.17-1.17s.52-1.18,1.17-1.18h16.43c.65,0,1.17.53,1.17,1.18s-.53,1.17-1.17,1.17ZM46.95,10.56c0,.65-.53,1.17-1.17,1.17h-16.43c-.65,0-1.17-.53-1.17-1.17v-5.87c0-.65.52-1.17,1.17-1.17h16.43c.65,0,1.17.53,1.17,1.17v5.87Z"/>
    </g>
  </g>
</svg>
