<?xml version="1.0" encoding="UTF-8"?>
<svg id="Camada_2" data-name="Camada 2" xmlns="http://www.w3.org/2000/svg" xmlns:xlink="http://www.w3.org/1999/xlink" viewBox="0 0 19.53 19.53">
  <defs>
    <style>
      .cls-1 {
        fill: none;
      }

      .cls-2 {
        fill-rule: evenodd;
      }

      .cls-3 {
        clip-path: url(#clippath);
      }
    </style>
    <clipPath id="clippath">
      <rect class="cls-1" width="19.53" height="19.53"/>
    </clipPath>
  </defs>
  <g id="Camada_1-2" data-name="Camada 1">
    <g class="cls-3">
      <path class="cls-2" d="M12.55,14.28l4.78,4.78c.48.47,1.25.47,1.72,0,.47-.48.47-1.25,0-1.72l-4.78-4.78c.96-1.31,1.53-2.92,1.53-4.67C15.8,3.54,12.26,0,7.9,0S0,3.54,0,7.9s3.54,7.9,7.9,7.9c1.74,0,3.35-.56,4.65-1.51ZM7.9,2.43c3.02,0,5.47,2.45,5.47,5.47s-2.45,5.47-5.47,5.47-5.47-2.45-5.47-5.47S4.89,2.43,7.9,2.43Z"/>
    </g>
  </g>
</svg>
