<?xml version="1.0" encoding="UTF-8"?>
<svg id="Camada_2" data-name="Camada 2" xmlns="http://www.w3.org/2000/svg" viewBox="0 0 44.6 44.6">
  <defs>
    <style>
      .cls-1 {
        fill: #ff9e33;
      }
    </style>
  </defs>
  <g id="Camada_1-2" data-name="Camada 1">
    <path class="cls-1" d="M44.41,25.99c.09-3.01.09-3.01.18-6.02l-4.66-1.81c-.67-1.78-1.01-2.66-1.68-4.44l2.28-4.45q-2.06-2.18-4.13-4.38l-4.57,2.01-4.32-1.95L25.99.19l-6.02-.19-1.82,4.66c-1.77.67-2.66,1.01-4.43,1.68l-4.45-2.28q-2.19,2.06-4.39,4.12l2.01,4.58c-.78,1.72-1.17,2.6-1.95,4.32L.18,18.61q-.09,3.01-.18,6.01l4.66,1.82c.67,1.77,1.01,2.66,1.68,4.44l-2.28,4.44q2.06,2.19,4.12,4.39l4.58-2.01c1.73.77,2.6,1.16,4.32,1.94l1.53,4.76,6.02.18,1.81-4.66c1.78-.67,2.66-1,4.44-1.68l4.45,2.28,4.38-4.12-2.01-4.58c.78-1.72,1.17-2.6,1.95-4.32l4.75-1.53ZM22.3,35.38c-.86,0-1.71-.08-2.55-.25s-1.66-.42-2.46-.75c-.79-.33-1.55-.73-2.26-1.21-.71-.48-1.38-1.02-1.98-1.63-.61-.61-1.15-1.27-1.63-1.98-.48-.72-.88-1.47-1.21-2.26-.33-.79-.58-1.61-.74-2.45s-.25-1.69-.25-2.55.08-1.71.25-2.56c.17-.84.42-1.66.75-2.45.33-.79.73-1.55,1.21-2.26.48-.71,1.02-1.37,1.63-1.98.6-.61,1.27-1.15,1.98-1.63.71-.48,1.47-.88,2.26-1.21.79-.33,1.61-.58,2.45-.75.84-.17,1.69-.25,2.55-.25s1.71.08,2.55.25c.84.17,1.66.42,2.46.75s1.55.73,2.26,1.21c.72.48,1.38,1.02,1.98,1.63.6.61,1.15,1.27,1.63,1.98.48.72.88,1.47,1.21,2.26.33.79.58,1.61.75,2.45.17.84.25,1.69.25,2.55s-.08,1.71-.25,2.55c-.17.85-.41,1.66-.74,2.46s-.73,1.55-1.21,2.26c-.48.72-1.02,1.38-1.63,1.98-.61.61-1.27,1.15-1.98,1.63-.71.48-1.47.88-2.26,1.21-.8.33-1.61.58-2.46.75s-1.69.25-2.55.25Z"/>
  </g>
</svg>
